<mxfile host="app.diagrams.net" modified="2024-07-12T05:54:40.765Z" agent="Mozilla/5.0 (Windows NT 10.0; Win64; x64) AppleWebKit/537.36 (KHTML, like Gecko) Chrome/126.0.0.0 Safari/537.36 Edg/126.0.0.0" etag="oZHA89pm9qQSpJ5F_oyb" version="24.6.5" type="github">
  <diagram name="页-1" id="Q3eWrs4pKvmjwzcyFCj1">
    <mxGraphModel dx="984" dy="1135" grid="1" gridSize="10" guides="1" tooltips="1" connect="1" arrows="1" fold="1" page="1" pageScale="1" pageWidth="1169" pageHeight="827" math="0" shadow="0">
      <root>
        <mxCell id="0" />
        <mxCell id="1" parent="0" />
        <UserObject label="&lt;div style=&quot;font-size: 1px&quot;&gt;&lt;font style=&quot;font-size: 25.4px; font-family: &amp;quot;Times New Roman&amp;quot;; direction: ltr; letter-spacing: 0px; line-height: 120%; opacity: 1;&quot;&gt;Network Layer&lt;br&gt;&lt;/font&gt;&lt;/div&gt;" tags="背景" id="inLYj_Lcw3w4wQ1dlt3W-9">
          <mxCell style="verticalAlign=middle;align=center;overflow=width;vsdxID=10;fillColor=none;gradientColor=none;shape=stencil(nZBLDoAgDERP0z3SIyjew0SURgSD+Lu9kMZoXLhwN9O+tukAlrNpJg1SzDH4QW/URgNYgZTkjA4UkwJUgGXng+6DX1zLfmoymdXo17xh5zmRJ6Q42BWCfc2oJfdAr+Yv+AP9Cb7OJ3H/2JG1HNGz/84klThPVCc=);strokeColor=none;points=[];labelBackgroundColor=none;rounded=0;html=1;whiteSpace=wrap;" vertex="1" parent="1">
            <mxGeometry x="112" y="580" width="178" height="50" as="geometry" />
          </mxCell>
        </UserObject>
        <UserObject label="&lt;div style=&quot;font-size: 1px&quot;&gt;&lt;font style=&quot;font-size: 25.4px; font-family: &amp;quot;Times New Roman&amp;quot;; direction: ltr; letter-spacing: 0px; line-height: 120%; opacity: 1;&quot;&gt;Smart Contract Layer&lt;br&gt;&lt;/font&gt;&lt;/div&gt;" tags="背景" id="inLYj_Lcw3w4wQ1dlt3W-10">
          <mxCell style="verticalAlign=middle;align=center;overflow=width;vsdxID=11;fillColor=none;gradientColor=none;shape=stencil(nZBLDoAgDERP0z3SIyjew0SURgSD+Lu9kMZoXLhwN9O+tukAlrNpJg1SzDH4QW/URgNYgZTkjA4UkwJUgGXng+6DX1zLfmoymdXo17xh5zmRJ6Q42BWCfc2oJfdAr+Yv+AP9Cb7OJ3H/2JG1HNGz/84klThPVCc=);strokeColor=none;points=[];labelBackgroundColor=none;rounded=0;html=1;whiteSpace=wrap;" vertex="1" parent="1">
            <mxGeometry x="90" y="460" width="240" height="50" as="geometry" />
          </mxCell>
        </UserObject>
        <UserObject label="&lt;div style=&quot;font-size: 1px&quot;&gt;&lt;font style=&quot;font-size: 25.4px; font-family: &amp;quot;Times New Roman&amp;quot;; direction: ltr; letter-spacing: 0px; line-height: 120%; opacity: 1;&quot;&gt;Application Layer&lt;br&gt;&lt;/font&gt;&lt;/div&gt;" tags="背景" id="inLYj_Lcw3w4wQ1dlt3W-11">
          <mxCell style="verticalAlign=middle;align=center;overflow=width;vsdxID=12;fillColor=none;gradientColor=none;shape=stencil(nZBLDoAgDERP0z3SIyjew0SURgSD+Lu9kMZoXLhwN9O+tukAlrNpJg1SzDH4QW/URgNYgZTkjA4UkwJUgGXng+6DX1zLfmoymdXo17xh5zmRJ6Q42BWCfc2oJfdAr+Yv+AP9Cb7OJ3H/2JG1HNGz/84klThPVCc=);strokeColor=none;points=[];labelBackgroundColor=none;rounded=0;html=1;whiteSpace=wrap;" vertex="1" parent="1">
            <mxGeometry x="111" y="340" width="189" height="50" as="geometry" />
          </mxCell>
        </UserObject>
        <mxCell id="inLYj_Lcw3w4wQ1dlt3W-12" value="&lt;font style=&quot;font-size: 18px;&quot; face=&quot;Times New Roman&quot;&gt;Asset Digitalization&lt;/font&gt;" style="rounded=0;whiteSpace=wrap;html=1;" vertex="1" parent="1">
          <mxGeometry x="350" y="320" width="110" height="80" as="geometry" />
        </mxCell>
        <mxCell id="inLYj_Lcw3w4wQ1dlt3W-14" value="&lt;font style=&quot;font-size: 18px;&quot; face=&quot;Times New Roman&quot;&gt;Asset&lt;br&gt;Trading&lt;/font&gt;" style="rounded=0;whiteSpace=wrap;html=1;" vertex="1" parent="1">
          <mxGeometry x="473" y="319" width="110" height="80" as="geometry" />
        </mxCell>
        <mxCell id="inLYj_Lcw3w4wQ1dlt3W-15" value="&lt;font face=&quot;Times New Roman&quot;&gt;&lt;span style=&quot;font-size: 18px;&quot;&gt;ID &amp;amp;&lt;br&gt;Permission&lt;/span&gt;&lt;/font&gt;" style="rounded=0;whiteSpace=wrap;html=1;" vertex="1" parent="1">
          <mxGeometry x="595" y="319" width="110" height="80" as="geometry" />
        </mxCell>
        <mxCell id="inLYj_Lcw3w4wQ1dlt3W-16" value="&lt;font face=&quot;Times New Roman&quot;&gt;&lt;span style=&quot;font-size: 18px;&quot;&gt;Security &amp;amp;&lt;br&gt;Privacy&lt;/span&gt;&lt;/font&gt;" style="rounded=0;whiteSpace=wrap;html=1;" vertex="1" parent="1">
          <mxGeometry x="718" y="319" width="110" height="80" as="geometry" />
        </mxCell>
        <mxCell id="inLYj_Lcw3w4wQ1dlt3W-17" value="&lt;font face=&quot;Times New Roman&quot;&gt;&lt;span style=&quot;font-size: 18px;&quot;&gt;Supervision&lt;br&gt;&amp;amp; Audit&lt;/span&gt;&lt;/font&gt;" style="rounded=0;whiteSpace=wrap;html=1;" vertex="1" parent="1">
          <mxGeometry x="840" y="320" width="110" height="80" as="geometry" />
        </mxCell>
        <mxCell id="inLYj_Lcw3w4wQ1dlt3W-18" value="&lt;font style=&quot;font-size: 18px;&quot; face=&quot;Times New Roman&quot;&gt;Smart Contract Virtual Machine&lt;/font&gt;" style="rounded=0;whiteSpace=wrap;html=1;" vertex="1" parent="1">
          <mxGeometry x="350" y="445" width="600" height="80" as="geometry" />
        </mxCell>
        <mxCell id="inLYj_Lcw3w4wQ1dlt3W-19" value="&lt;font style=&quot;font-size: 18px;&quot; face=&quot;Times New Roman&quot;&gt;PPoV Consortium Chain&lt;/font&gt;" style="rounded=0;whiteSpace=wrap;html=1;" vertex="1" parent="1">
          <mxGeometry x="350" y="565" width="280" height="80" as="geometry" />
        </mxCell>
        <mxCell id="inLYj_Lcw3w4wQ1dlt3W-21" value="&lt;font style=&quot;font-size: 18px;&quot; face=&quot;Times New Roman&quot;&gt;MIN High Security Network&lt;/font&gt;" style="rounded=0;whiteSpace=wrap;html=1;" vertex="1" parent="1">
          <mxGeometry x="670" y="565" width="280" height="80" as="geometry" />
        </mxCell>
      </root>
    </mxGraphModel>
  </diagram>
</mxfile>
